/* XPM */
static char *f451370bd53444f1906f69446b291119cDcQiVasyNQPhofO[] = {
/* columns rows colors chars-per-pixel */
"64 64 150 2 ",
"   c #0D0D0B",
".  c #0E0E0E",
"X  c gray6",
"o  c #111111",
"O  c gray7",
"+  c #131313",
"@  c gray8",
"#  c #151515",
"$  c #161616",
"%  c gray9",
"&  c #181818",
"*  c #191919",
"=  c #19191B",
"-  c gray10",
";  c #1B1B1B",
":  c #1D1D1B",
">  c #1B1B1D",
",  c gray11",
"<  c #1D1D1D",
"1  c #1C1C1E",
"2  c #1D1D1F",
"3  c #1E1E1E",
"4  c gray12",
"5  c #1F1F21",
"6  c #202020",
"7  c gray13",
"8  c #232321",
"9  c #202022",
"0  c #212123",
"q  c #222222",
"w  c #232323",
"e  c #222224",
"r  c #232325",
"t  c gray14",
"y  c #252525",
"u  c #242426",
"i  c #252527",
"p  c gray15",
"a  c #272727",
"s  c #262628",
"d  c #272729",
"f  c #282828",
"g  c gray16",
"h  c #2B2B29",
"j  c #28282A",
"k  c #29292B",
"l  c #2A2A2A",
"z  c gray17",
"x  c #2C2C2A",
"c  c #2D2D2B",
"v  c #29282D",
"b  c #2A2A2C",
"n  c #2B2B2D",
"m  c #2C2C2C",
"M  c #2D2D2D",
"N  c #2C2C2E",
"B  c #2D2D2F",
"V  c gray18",
"C  c #2F2F2F",
"Z  c #2E2E30",
"A  c #2F2F31",
"S  c #2E2D32",
"D  c gray19",
"F  c #313131",
"G  c #303032",
"H  c #313133",
"J  c #323232",
"K  c gray20",
"L  c #353533",
"P  c #323234",
"I  c #333335",
"U  c #343434",
"Y  c #353535",
"T  c #363634",
"R  c #343436",
"E  c #353537",
"W  c gray21",
"Q  c #373737",
"!  c #383836",
"~  c #393937",
"^  c #363638",
"/  c #373739",
"(  c #36353A",
")  c #37363B",
"_  c gray22",
"`  c #393939",
"'  c #38383A",
"]  c #39393B",
"[  c #3A3A3A",
"{  c gray23",
"}  c #3A3A3C",
"|  c #3B3B3D",
" . c #3C3C3C",
".. c gray24",
"X. c #3F3F3D",
"o. c #3C3C3E",
"O. c #3D3D3F",
"+. c #3E3E3E",
"@. c #3F3F3F",
"#. c #3E3E40",
"$. c #3F3F41",
"%. c gray25",
"&. c #414141",
"*. c #404042",
"=. c #414143",
"-. c gray26",
";. c #434343",
":. c #454543",
">. c #424244",
",. c #434345",
"<. c #444444",
"1. c gray27",
"2. c #474745",
"3. c #444446",
"4. c #454547",
"5. c #464646",
"6. c gray28",
"7. c #464648",
"8. c #474749",
"9. c #484848",
"0. c #494949",
"q. c #48484A",
"w. c #49494B",
"e. c gray29",
"r. c #4B4B4B",
"t. c #4D4D4B",
"y. c #4A4A4C",
"u. c #4B4B4D",
"i. c #4C4C4C",
"p. c gray30",
"a. c #4C4C4E",
"s. c #4D4D4F",
"d. c #4E4E4E",
"f. c gray31",
"g. c #505050",
"h. c #515151",
"j. c #535351",
"k. c gray32",
"l. c #535353",
"z. c gray33",
"x. c #555555",
"c. c #565656",
"v. c gray34",
"b. c #585858",
"n. c gray35",
"m. c #59595B",
"M. c #5B5B5D",
"N. c #5D5D5D",
"B. c #5D5D5F",
"V. c gray37",
/* pixels */
";.Q I ] ^ ] ;.#.o.>.^ Q ] o.} Q ^ I A d d B B J Q I } ^ ^ ^ #.>.I ' Q o.F i j n n j a d d d t B B B L L Q J I ! _ #.u.6.,.9.0.@.",
"#.} Q J ;.#.3.;.] 3.] Q ] } #.#.>.#.I n n B n A B B A A I ^ ) I A I  .Q j L d j n B n t d C I ^ ;.] Q B C { >.] #.>.! { >.3.9. .",
"} o.A A ^ o.9.9.;.3.;.;.} } #.o.} ^ Q A A ^ ^ I ^ I ^ Q A G } I I I J J j J j a n B j B n ^ } ] ^ ^ o.B n B ] @.Q A d y a Q L Q ",
"o.A A o.] #.8.>.9.9.3.;.#.#.#.;.#.^ } I A ^ ] J ^ n I ^ I I ^ J I Q I B i J Q j n n I ;.#.o.^ R _ Q J J j p j F ^ Q I ] u.;.] A ",
";.^ ^ #.9.8.9.>.q.q.8.>.} ] o.#.>.#.} B A n B j A n I I ) ^ I I J J F i y ] Q B A i ] %.} } ^ R H n n n A Z i y 7 3 a F ;.9.;.^ ",
"9.>.J ] >.8.>.8.3.#.>.#.} } ^ } } I A I n n A n n I } ^ I A N I J ! F 3 y Q _ L n J @.J N ^ J j n A I I A n B J J C B j F J B B ",
";.} J o.3.s.y.y.8.} #.I A J I A n j d n A J r i A 3.>.#.^ } ] ] I } B * i  .] K I ^ Q Q ^ I Q Q #.} #.I A H B i C 3. .! Q J ] { ",
">.#.B Q ^ #.} ^ Q A A A I I ^ ) I A A J ^ J J B ^ ;.y.y.a.y.9.} Q _ c * c ! J i Q Q R ^ I ^ o.;.*.>.>.#.} } Q i B Q j j R ] %.;.",
"o.Q a B j n n n j j 5 n J j 7 B J ] ] L Q I J n J Q ] :.o.L B F A B 7 j y L J F c ]  .] o.] ] 3.3.:.r.9.;.] 3 $ j B c B ! ! L Q ",
"7 $ * $ $ $ * $ $ % * * $ * X * : * 4 3 3 3 * 3 : 4 4 a j a 3 3 = 5 J @.B 4 7 7 * 7 8 p a 6 % 4 y 7 7 y $ * .   o : a j y : 3 7 ",
"] F J Q Q ]  .! ^ Q Q Q J L J ^ Q ] ] Q B B B ! ]  . .X.%.:.;.%.;.f.l.f.f.9.%. .! J J F L Q Q J J K L J Q ]  .} Q ;.r.j.r.0.3.3.",
"L L L L J Q ] Q J f.h.;.J c B B J L J J F c c Q ! ] Q f.b.3. .J J B B L ] ! L L F B F B B J 9.6.J J K ;.%.] J ^ !  .3.%.!  .;.%.",
" . .Q J A B J j 4 ] :.a 7 i d A F a c c B A B j i j 4 B t.i 4 : 4 3 y p y y a j y 8 i a 8 * C a y a j B ^ R C A A R ^ I L Q B B ",
"3.o.] Q J J B c i 7 L a r i j B B y c Q I I J J L F j F ! y y 4 7 4 a j B j a a j a x a y 4 8 c x J Q B A ^ I H ^ ) }  . .^ Q j ",
"%.} Q ] I A j c a y J i i j i 7 y y i F n j L L B c a c F 7 y 4 y i 7 4 p j p y a a a j 8 : t j J I B j J ^ ^ ] } ^ } ) ] ^ J j ",
" .;.o.} c B c B a 4 Q 7 i j y i 7 y i a 7 B j y 4 y 4 y y 4 y a x x i y 8 i 8 i y y p a y ; i 7 R R A J } ;.,.#.o.o.^ I Q _ R B ",
" .;.h.] c B A A a 4 F 7 7 7 y 7 y i y 7 7 i i y y 7 7 y y * a i i y y i i 7 3 i a y y a a 4 c a ! Q J J ) } 8.8.#.] } } }  .J A ",
"Q  .o.J B J A J j * : 4 7 7 7 y y 3 7 7 4 7 y y 7 7 7 i i : a j a y 4 i i 8 y 7 c 4 8 y a 4 j j Q R I I _ } >.9.;.#.#.o.o.%.I A ",
"L  .! L J Q J J B # * 3 5 r 7 4 : 3 4 7 3 y 4 y 3 3 3 y i : j y 4 4 3 4 y 8 8 7 8 p i j c 7 F p B ^ _ ^ } } ;.o.} #.#.#.o. .I j ",
"o.] B J B a j i i o y y 7 r i 4 3 4 3 4 4 y y 4 3 3 a 3 : : 4 7 4 : * ; 3 4 i 3 7 3 4 7 y 4 K j i R #.^ _ } ^ Q I ^ #.o.o.L J N ",
"J c a i 4 * $ * $ 3 J 4 * * : : : 3 4 4 4 4 4 3 3 i 3 7 3 $ * 3 : : * * * : ; 7 4 3 3 4 ; % c j 3 j Q J C c B L J n i i y c J x ",
"B F F F F %.t.0.:.9.3.Q j 7 3 4 4 7 y : : 7 * : y a ! 9.3.c i 5 4 y i p 7 4 : 3 4 3 6 : 3 c 3.2.L i 7 * : ; * * 5 6 8 7 y 4 y j ",
"] Q ! L %.o.;.;.;.%.Q L J B c ] :.Q i a y y i F B L Q ] %.o.Q Q ] ]  .Q L C F c B F J Q Q  .! ]  .c c ]  .j 3 4 7 N L J J B C J ",
"4 4 4 y y a j j c a y a j 4 $ F :.j 7 y y a B ! ] B j B ] ! Q Q ] o.^ ! j y Q ] a K %.o.] J F R c B a ] 9.7 3 j a j c j c Q :.] ",
"4 y c j y j F F c a a a y 7 $ F B a L j n J ^ } } I I A Q ]  .] L ] o.9.9.%.o.o.Q J %.f.8.]  .L i B c a %.3 y j B F Q B !  .t.3.",
"y 4 i c y y p a a y y y y y * 7 y i ^ L A J ^ ^ ^ ^ I A i c ! ] ] B J Q ] ;.%.2.b.f.z.m.N.N.N.r.c  .{ B ! * 4 c B c Q Q  .3.f.@.",
"y a a a 7 i 4 4 y 7 y 4 i y 3 : 3 a J A J A J Q J J I Q B F j Q ^ o.{ { { ;.o.%.9.f.b.M.y.9.f.:.C B y F ] * 4 L c B L Q  .f.f.o.",
"4 a B a 7 a y y y y y y 7 4 4 * : B B n n J } J B i B B c J F J J ] ] Q J ! F  .;.2.f.0.f.%.o.] a c i K Q : a B L  .J L o.%. .o.",
"4 y c a y y 7 i y 4 a a 4 4 4 . * Q L c j L ! Q Q i c L Q ] L A F F Q Q C F F ! o.;.;.{ 0.0.o.L x B B B c 3 i F { o.L ] ! F ! o.",
"y y y a y 4 y 7 y a a y y y 3 # 3 Q F B j j F F J J Q ] L J F j B J J J J B L ! ! :.@.f.0. . .F B I L F c * j F B x J ! L Q @. .",
"a a a a 4 7 y 4 y i : 4 7 y * * * c j j F L L ] o.! Q J F B F F F K Q J J F B B B  . .:.:.3.3.! R c C F K * i c p a x B x J  .J ",
"y p y 4 * : : 4 4 * # * # : $ a B 7 a c h B F F J B J B F Q L Q K c N x c 4 3 4 i B J ! ! ! a 4 4 y 4 j j % 4 * 3 y i i 8 7 y y ",
"y 4 * 3 4 : 3 * * * 7 7 i c c :.t.o.c a i p i 4 3 6 7 y 4 4 t 6 ; 3 3 4 y 4 3 3 3 $ : 3 : 6 4 4 p i F ;.] 4 y 4 y 4 7 i p a c B ",
"! B B c L F B F B ! 3.:.] ] K o.@.o.%.] ! ! L L ] Q ! Q  .o.] ! ] Q L C J Q  .B c c a B J ] 3.o.Q !  .{ ] J L !  .{ Q ! o.%.;.%.",
"a i i y 7 t 8 7 : p :.j 4 4 y y a a c B j 7 a y 7 y i 8 j :.Q j j p p a y 7 y y i a 8 p j c ;.i y p c L Q J ! J J Q Q Q ] ! c j ",
"y 4 : 4 i i y y 7 7 c y 8 y 4 y a p i N c c F a i 7 4 3 4 x 3 6 y 7 8 i p x j 8 i 7 4 7 7 7 x 7 8 B J F Q  .] J J K Q Q Q L L B ",
"c i y y j c J c 7 7 7 p i y 4 j y y y 7 a c F c i 7 4 4 7 * 3 7 4 4 y y y 8 j c y 7 7 7 7 : a 4 8 C ] ! ] ] ! Q Q Q J Q Q ! J j ",
"F a j c j J B a 7 4 : i y i i c a a y 7 y j a j 7 4 4 4 3 * 3 6 y 8 y j 7 y j a i 7 y 4 3 : j 7 j j C L ! ! ]  .] ! F J J ] F j ",
"F B F a y p B 7 7 6 * 8 7 8 i B c a i y y y 8 a p y i 4 3 3 3 3 8 i a 4 7 a i 8 8 7 y a i i i 7 7 i p L ! ] ] !  .] o.Q L ] C a ",
"F c c y 7 i 8 7 3 $ 3 7 7 x F C c y y 4 7 7 4 4 4 y y 4 3 3 * : 4 y i 4 7 p p 4 y 4 : 4 i * 8 y : 7 i a J Q ! ] !  .] ! L Q c a ",
"] L p c t i 7 : 3 $ 7 4 7 L J J C a a y 4 4 4 4 3 7 7 7 3 7 $ * 4 7 i 4 7 7 7 7 i 8 7 7 4 3 B p * 3 8 i C ! Q !  . . .Q R Q B x ",
"Q ! x x i p 4 3 * * B 7 7 x c B B a a j i 4 4 4 3 6 7 * 7 a # * : : 7 4 7 7 7 7 4 7 3 3 4 * L J : % ; 7 y B F J L  .! J Q J a 8 ",
"] F y y a j 7 3 o 3 J & 3 7 7 t a a p c c p 4 3 : * * & R Q # $ * * 4 4 * : : 3 3 , * * * $ ] L o $ % 4 7 a j a i a c c j p i 7 ",
"j x i 4 : * * + $ C R * + $ $ o * * % # + # # * $ 3 i ! 3.9.K : * * # $ $ $ $ # o $ $ o * : ! %.j * $ * : 4 4 4 4 y i a 4 ; 3 3 ",
"L L a B j B L L Q o.:.! F j x ; a i y c a p F J L ! Q @.0.:.0.;.o. .J F C F F c j j j C L %.3.0.;.Q j F j C a 8 y a a a a C F F ",
"Q Q F F x B j j c a x B J C N c B x x F ! J J F C c B K L B Q ! F 0.h.K x J a F F a j L %.a : : 7 J ! K Q ! j i p a B J C Q F K ",
"j j c j c a : 7 a y a B j p p B c j j j J L C C L a 8 y x N j F a J  .4 i 8 y a j a a F Q B a 3 y a ! Q J j i 7 i i c c Q !  .! ",
"c a c a j a 7 j a F L F K x x L F B B t : 3 i x a i B a i i x a F F a 8 i y i a i c L J C J j y j B a j x c c c B c a j J {  .] ",
"x i B c y 7 i c B B c c J y a a p B a y : 3 : 4 : 4 a a 7 c j a L B 7 3 y y i i p c j c F c 7 4 y c c 7 i F c j F F J F j x C J ",
"B x a i a B c F c c j y i a 4 y 3 3 7 7 y 7 a j j x a y 7 c i y p 8 a 4 y y a y i B x p a a 4 y a j c j 4 3 8 i C K Q ! F c F C ",
"F C c j ! R J Q B j a i y 7 a a 4 4 * $ ; 4 7 i a a c p y 4 p L c 4 c 4 y y y y y p i y p j j y y 3 : 8 i y i c C c j F c B J F ",
"! Q p F L x j j 8 p B c c F a y x c B J a 7 i 4 4 4 i B F j : i j 3 F a y y i 8 y y i a c c a 4 4 y 7 i 7 7 8 j a c a B c j J J ",
"J F J F c B j c C F K ] Q c i i y y a L c a y y c x i a B a a j y 7 Q x i c j 4 8 8 t j a a y 4 7 i 4 7 y 4 6 i a y i j a c J J ",
"7 p K ! Q c J J J K C J ! J j c a i C F a 4 c j j J C c c c 3 * o 7 ;.8 8 p 3 : : 7 p i a a : ; 4 4 4 4 4 y 7 7 4 4 y p j p a B ",
"a a F ] J L L B x ] Q Q { ] J ! : o y j i a J j y j J a j a 4 * 3 Q 9.] j i 4 3 4 3 y y i 4 3 * 7 4 y 4 4 y 7 6 : * * 3 * 3 3 4 ",
"i 4 : 7 * i 7 3 * i p 4 3 : 3 7 y 4 y 3 3 3 * 3 : 4 4 y a B L 9.z.c.b.z.h.3.:.t.f.:. .] %.o.o.;.o. . . .! ! ! _ ! Q Q Q J a 7 c ",
"j x y 8 4 : 3 : F j i 7 4 4 8 p x j 7 i a 7 3 p j 7 L ;.3.o.! o.o.! o.%. .{  .:.:. .Q  .;.9.f. .C J J B J J J Q Q Q F C B j c x ",
"Q J C F j B j : J c j 8 y i a 4 y 8 4 7 3 : : y j 7 7 ! a 7 7 7 7 4 4 i 4 4 4 3 4 4 3 7 * o.:.3 * 3 3 3 3 3 3 7 4 3 ; y y 8 3 , ",
"K B C B c y j 4 * a x y : 3 : 4 4 4 4 i i 7 y y 4 : $ i : : 7 a x i 3 7 y j 8 6 7 3 : 3 * J B * 3 4 3 3 3 6 6 3 4 7 7 7 7 3 6 3 ",
"Q L J L j y a 8 # y a 7 3 3 y y 4 4 4 i F c y 7 7 * $ 7 4 3 3 3 7 7 7 8 y j 6 3 7 3 3 i 3 c F 7 3 7 7 3 3 3 7 3 3 4 7 3 7 3 3 7 ",
"] L B x a c i 4 # p p y 8 y 7 8 7 7 3 3 y a a y 3 * * 4 3 3 3 3 y i a c j a 8 : 4 : 4 7 : i i 7 * 3 7 7 , 7 7 3 3 t 7 7 7 y 3 : ",
"K F c p a a y y $ i i 4 a j a a y 4 3 4 4 4 y y j y $ * * 3 3 3 p p c a x j i 7 7 8 4 7 7 i 8 7 : * 7 7 t 3 3 , 7 t 3 6 i 7 6 3 ",
"Q J B B x i 4 y # y y : y y a j i 7 8 4 4 4 i y 8 : # 3 * 3 4 : y a c a i a a y i a i 7 3 8 t 7 3 * 3 3 3 6 * : 3 7 7 6 7 7 6 6 ",
"] L Q L F y 4 7 o 4 7 3 4 7 4 i 8 y 8 4 4 4 i 7 3 * * i * 4 3 3 y a a 4 y y a j j i 8 6 : j a 7 7 * 3 * 3 * 3 7 3 i 7 3 3 3 * 3 "
};
