/* XPM */
static char *_e7fb975df874df5e76852e5aa18b7995Ie3XSqMJu5DKwhG[] = {
/* columns rows colors chars-per-pixel */
"85 64 149 2 ",
"   c #2C220F",
".  c #272014",
"X  c #2C2315",
"o  c #2C261B",
"O  c #2E281E",
"+  c #322713",
"@  c #342A17",
"#  c #3B2D16",
"$  c #332B1C",
"%  c #392F1D",
"&  c #3C311D",
"*  c #2B2720",
"=  c #2E2A23",
"-  c #2F2D28",
";  c #332D24",
":  c #382F20",
">  c #322E29",
",  c #363026",
"<  c #3A3223",
"1  c #35322C",
"2  c #3A352C",
"3  c #3E382E",
"4  c #363431",
"5  c #393632",
"6  c #3C3934",
"7  c #3D3C3A",
"8  c #42341C",
"9  c #4C381A",
"0  c #413726",
"q  c #473823",
"w  c #4C3B21",
"e  c #413729",
"r  c #433A2E",
"t  c #483C2A",
"y  c #423D35",
"u  c #413E3A",
"i  c #3F403F",
"p  c #5F471F",
"a  c #534221",
"s  c #474137",
"d  c #484136",
"f  c #44413D",
"g  c #49443C",
"h  c #514A3F",
"j  c #3E3F40",
"k  c #454442",
"l  c #494642",
"z  c #474847",
"x  c #4C4A45",
"c  c #454748",
"v  c #474849",
"b  c #4D4C4B",
"n  c #514C45",
"m  c #514F4B",
"M  c #4F504E",
"N  c #53514E",
"B  c #58544E",
"V  c #4C4E51",
"C  c #4F5151",
"Z  c #545453",
"A  c #595754",
"S  c #575857",
"D  c #5A5956",
"F  c #545659",
"G  c #56595A",
"H  c #5C5C5B",
"J  c #615F5C",
"K  c #5F605F",
"L  c #62615E",
"P  c #69645F",
"I  c #5C5E60",
"U  c #5E6163",
"Y  c #646464",
"T  c #696663",
"R  c #676867",
"E  c #6B6966",
"W  c #646669",
"Q  c #66696B",
"!  c #6C6C6C",
"~  c #736D64",
"^  c #716F6B",
"/  c #6F706E",
"(  c #7B7266",
")  c #72716E",
"_  c #74716D",
"`  c #75716D",
"'  c #74726F",
"]  c #77736E",
"[  c #76736F",
"{  c #77736F",
"}  c #7A736B",
"|  c #676C71",
" . c #6B6D70",
".. c #6B6E71",
"X. c #6C6F71",
"o. c #6F6F70",
"O. c #6F7071",
"+. c #6F7172",
"@. c #6E7173",
"#. c #6F7174",
"$. c #6F7274",
"%. c gray44",
"&. c #737170",
"*. c #737271",
"=. c #717172",
"-. c #707173",
";. c #747371",
":. c #777370",
">. c #777571",
",. c #747473",
"<. c #777573",
"1. c #707375",
"2. c #737375",
"3. c #717376",
"4. c #737474",
"5. c #727476",
"6. c #737576",
"7. c #737577",
"8. c #757574",
"9. c #757475",
"0. c #757576",
"q. c #757677",
"w. c #797671",
"e. c #787673",
"r. c #7B7773",
"t. c #777877",
"y. c #797976",
"u. c #7A7876",
"i. c #7C7974",
"p. c #757678",
"a. c #777778",
"s. c #777878",
"d. c #77787B",
"f. c #797A79",
"g. c #7A7A79",
"h. c #787A7B",
"j. c gray48",
"k. c #7E7B78",
"l. c #7D7C7B",
"z. c #7B7C7C",
"x. c #7E7F7E",
"c. c #807E7B",
"v. c #81817F",
"b. c #7E8081",
"n. c #818180",
"m. c #838382",
"M. c #888787",
"N. c #8B8B8A",
"B. c #929290",
/* pixels */
"Q ^ p.5.3.3.3. .I > 7 7.+.W ! ^ ) ) u.w.w.i.u 6 w.w.^ T 2 : A :.:.w.E ^ :.:.:.i.r.r.:.^ ~ E E E ^ &.:.b.J ; Z d.o.#.&.#.&.#.&.3.%.s.Z 6 W ! ! W E +.l.p.p.Y 1 V Q p.p.! Y ",
"R ! o.5.3.3.+. .W 2 c #.Q Q ! %.8.;.w.8.' ' 6 2 ^ ' { i.m o 5 g m J m m A B B N A J J T :.:.:.:.r.r.c.n.b > I d.7.3.2.&.#.&.o.#.+.8.D u +.! Q Q W 8.g.a.l.%.1 6 ! %.| W Y ",
"R D V H W ! o.3.W 1 b +.! %.p.8.9.9.;.w.' ^ y ; E ^ } w.J @ o ; ; > > ; * O O O * ; > 2 u l l l l x b b 1 1 G 0.7.0.9.2.&.%.%.%.) %.H k 5.! E Y W r.a.a.x.W 1 1 I  .W Y I ",
"6 1 < , 2 5 7 f 5 ; C  .%.3.p.;.8.8.w.9.' ^ l @ J ;.^ :.! ; = 7 f u 6 f f k x x u y y y > > ; > > > > * X k &.&.7.&.2.&.&.&.%.%.) 5.A 6 ! ! Q Y W g.g.8.8.W 1 o 5 Z G b k ",
"m u $ k Z v x b Z H H Q 3.3.9.;.8.p.;.,.' ) b = m { ! r.%.f ; x ^ E m ^ ^ E ^ { ~ T J J J J T J m D H j ; D n.0.0.;.&.&.&.&.^ ^ ) ! x 1 ! ! Q Y E p.g.p.5.3.u @ > 2 5 6 u ",
"x.D 5 ! 8.%.%.8.o.;.3.o.;.9.%.9.8.8.p.r.5.8.L , f ' E ;.b.H = m c.c.Y ^ ;.^ ^ ^ ^ ~ ^ ` :.:.` c.n.n.m.Z > P b.9.9.;.;.&.^ &.&.&.^ ^ A 1 Y ! E Y T %.a.8.p.5.k , Z Q H E o.",
"g.n l a.;.9.9.;.;.%.%.;.p.;.8.;.,.,.8.8.;.,.,.6 u ;.E o.a.! = c r.;.9.E ^ E T E ~ E ^ ^ ^ E E :.u.&.c.R 2 D n.a.;.;.^ :.:.^ ^ ^ ) ) K , S ) R Y E p.p.3.p.I 7 y 3.a.3.9.p.",
"R 1 x p.;.;.9.9.9.9.;.%.;.8.;.8.,.,.8.%.) g.! 6 y w.%.! w.! > 6 ! l.;.;.^ T J T T T T E T T T ^ &.&.l.#.2 y &.c.r.u.0.:.^ :.^ &.) ) K , x ! E Y ! p.5.3.5.Q v 6 ! ;.p.8.9.",
"H > : J p.%.;.%.! ) ^ 3.;.8.;.;.%.+.) / 8.z.C 1 1 U ;.;.p.8.x 1 J x.r.%.! T T Y P T Y T E E E E ) ! g.+.5 $ k Y 7.E &.r.r.:.0.^ / ) M , i / T R U / f.6.$.f.K > V o.9.3.! ",
"a.n X 5 ^ r.a.r.8.;.E Y R J D Z N x x N A x & # , H s.8.%.g.N , Z Y %.%.! E T Y T Y T T E E E ^ ! x.5.N , + O 1 u u x D ^ :.^ :.[ T l X 2 T R Y K R z.p.$.f.R 1 Z o.p.;.;.",
"9.W : + 2 x N Z Z b u 5 > > ; @ @ @ % $ & $ , $ % A %.! %.8.Z 2 Y 9.9.%.! E E ^ &.^ E ^ ^ ^ r.9.N x 5 ; ; , , , 6 5 O @ ; 5 u x g i $   $ K R Y K L $.6.p.h./ 4 m o.r.p.7.",
";.%.y + = > 5 6 1 2 y f b N x k 3 @ 1 f c x Z k ; f ! o.+.8.A 1 T l.g.&.3.o.o.! ! :.l.a.l.r.E m 4 1 f Z R Y E ^ 0.! > o 2 5 y 5 2 1 , O @ M / R L L / h.6.6.$.3 c ! 9.p.p.",
"9.%.m o k ! 9.%.R R ! ! ^ ^ ! ! L , f ) %.! ! Y ; 2 ! 3.R ! N , b Y J I l.l.c.%.G H Y J m g 2 ; 5 P [ ! ' ' ' ' r.^ 1 l T ~ ^ E ~ T P M o i / Q Y K E 5.,.6.6.i u ! 9.w.p.",
"8.%.T > D p.^ E ^ ^ ^ ;.%.^ E T R 1 b 5.! ! W o.5 o 6 5 , 1 ; $ > 4 7 u V G A b u 5 > > = = > b Y ! ! ' ' ' ' ' r.~ 1 A ^ ~ ~ ^ ) / [ / s - G R R H Y 5.,.,.t.i 6 Y 3.a.8.",
"p.%.E 6 D %.! ! ^ %.%.^ ' ! ! R R 1 b / ! ! Q ! 5 . * > 1 7 b n m 7 > > > > ; $ @ : y g n J J T E E ! ' ' ^ ' ^ ;.J 2 n ^ ~ ^ ^ ! ! ! / A = 4 Z Y U U ! ,.,.y.x 6 I 3.r.p.",
"r.^ ! y J ! ^ ;.%.;.%.%.^ ^ ^ ! E 1 f !  .+.E o.5 > G E Y ! l.8.l.%.E W G n u % @ m ^ %.%.9.^ E ! ~ ) ) ) ) ) ' %.E d d ^ ` ^ ~ ! / R R R 6 1 H Q Y Y ! $.8.x.N 7 3.8.p.r.",
"9.! ! y D %.%.;.%.;.;.^ ! ^ E Q K ; , Y ! +.! ! 5 - o.h.8.p.8.p.;.3.3.r.g.x.) y ; L ! E R ! O.! ! ) ! ) ^ ^ ^ ^ ^ ~ h i ~ ,.~ ~ ) E R R R M = M  .R R / $.t.m.K 5 9.g.p.p.",
"! %.! t x ^ 9.a.8.g.R ^ p.;.E A 6 o , Y o.! Q Y Z - H p.5.3.p.8.o.^ p.p.8.8.5.x $ L ! ! ! ! / / ! ! ! ~ ~ ^ ^ ^ ~ / g a R ^ w.{ / +./ R Q U 1 i Q O.Q / t.x.m.K ; Y l.i.9.",
"Z A b 8 < u n x d s 5 5 s y 2 1 1 o 3 W o.! ! Q Q 6 x 5.3.3.7.p.3.^ a.8.p.9.8.x ; L ,.O.,./ / / / ! ! ! E ~ ^ ^ / R h 8 L R R E / / / / | K i ; h K M x h g x i o 1 y x B ",
"5 r < % : 2 6 y g m m N x 2 $ k Z 6 6 ! +.o.o.! ! N 6 ! %.8.5.%.) 5.p.r.p.8.%.u 1 Y +.) +.! / Q ! E ! ! ^ E E E R / h i M L L R P K R R R G - X 1 k s i g i f 1 1 1 6 u y ",
"%.^ E T D J Y ! %.8.;.,.u.H 2 G Y l 1 R 3.%.3.o.! Y 1 G o.3.7.o.+.8.p.p.7.8.! 5 7 R / / / / Q Q R ! / R ! E ! ! R S a i S R R R R Y K U U Z > 6 K Q R R R R / / ! Y ' 8.9.",
"p.p.a.a.! ! r.g.8.;.' ! ) Y 6 G W Z > F g.5.%.+.! E 6 H #.7.3.o.3.8.p.8.7.7.W 2 c ! o./ / / | | Q ! Q / R / E ! R K 0 s E 5.,./ 5.+./ 5.$.U > C $.O./ O.R R / [ 8.p.r.9.8.",
"9.9.9.9.! %.7.9.%.;.+./ 5.D 6 U | G 4 c s.g.5.%.E W y D #.#.o.! 3.p.3.3.7.O.E 7 b | !  .O.| | | / | / R ! / R R R R i s / 5.,.,.+./ / #.5.| 4 G $.O.O.$.$./ R / ) ) %.8.9.",
"r.9.9. .! %.9.9.3.+.%./ +.v 5 U | W 6 4 C %.s.5.5.Q 3 v o. .I U Q  .+.o. . .o.k x  .W Q | / | | | Q Q ! R R R R R R i i R / ,.,.$.+.+.+.+.Q 6 H $.O.....$.>./ R Q ! E ' r.",
"l f f u m Y %.8.5.8.o.Q G 6 1 I  .Q 7 o 4 v W ! W v , < k u 5 5 6 f b I W +.o.7 i / Q U U ..$.| | | | ..Q Q Q | R | i i K / $.,.,.%.,.+.7.Q 4 z | O.O./ ,./ R A b x g f l ",
"Z m x u 2 3 b B N b k 7 4 $ 1 C | Q v X X = > , 1 > 2 y u 7 7 j j 6 4 , 7 b f , O M Q Q | | U | / | ..O.| Q Q W Q +.i i K / 5.,.5.,.+.+.| F 6 < i f k x s s i 3 2 y f g b ",
"p.r.9.W Z 7 % 2 7 f k k j - 7 U Q Q Z O X ; 7 x b Z H E Q Q I F I Q G c 2 $ @ 2 , O O i C c c F F S G G F c C F U G - i K / ,.,.5.5.+.! G C j , , 2 3 4 6 i x x N N J ! 8.",
"9.9.p.g.8.Z 2 c I #.o.+.U - j W | Q C O = Z E ;.8.p.8.8.o. .I Q #.| | Q Z 6 1 k C c i 4 > - = o = > > > - j 4 i i - o i Z K R R Q E Q Q Q | C 1 v Z S S A K R / T D Y w.r.",
"' ;.8.3.8.G 5 z ! 7.3. .I 4 7 U +.#.I ; 4 W %.p.p.9.p.p.9.! I Q #.| | #.U j 1 F U U Q U K U C - i V F F F F U U z i O M R R R / / ) +.+.$.$.G 1 z 5.f.5./ / ,.[ i.R U w.8.",
"' ;.8.5.8.U 6 k W #.3.7.I j - F | #. .7 4 Q 8.8.p.r.u.9.#.! Y  .#.#.+.| W j 4 G Q O.$.$.O.6.R > M O...| | | | $./ b , N 5.,.,.,.t.,.5.,.$.+.K , c / $./ $./ / ,.{ [ L ' u.",
"' ' 9.7.5.! k 6 G #.p. .F c - V #.5.#.v 1 R %.p.7.r.7.7.p. .Y Q @.@.5.| Y c 4 I / $.1.8.$.$.K > U $.$.| O.@./ +.6.K & i / 8.,.8.6.5.p.$.5.$.R O i / $.5./ ,./ ,.{ { Y ! u.",
"' 9.;.8.8.7.C 1 j H W U U V 4 c Q #.5.C 1 Y %.8.9.a.p.9.3.! W W @.@.5.+.U j 4 U 8.6.t.t.$.$.F 4 W $.$.$.@.O.$.$.6.M , i >.8.8.8.6.6.5.6.$.s.R , 2 / 5.6.5./ ,./ / w.E ~ x.",
";.;.9.p.7.p.I 5 5 Z W W Q I 5 6 H G Y b 2 H 9.%.9.7.r.9.p.%.W Q | @.3.#.W 6 7 ! p.p.9.p.9.;.m 5 Q 3.o.o.#.#.| #.| I > k g.a.g.8.p.9.3.3.3.b.! , , Y 8.p.9.;.;.&.9.&.~ E u.",
"&.;.9.9.a.7.Q 7 5 G  .| o.E 7 o ; % 2 1 % u A ^ ! 9.p.7.r.3.! Y W @.%.3.Y 6 7  .a.p.r.p.p.E u 5 T  .3.3.#.#.3.| W I 1 y U %.R E Y Y Y R ! ! b ; , L p.8.9.a.3.;.9.^ ^ T u.",
"' ;.9.p.p.0.! 7 1 H %.3.3.%.l = x Y E E m y y d x E 8.p.p.9.%.R ! $.8.8.Q 6 k H %.9.p.p.;.I k 2 W | | | | | | W Q J 4 : 4 4 u 5 6 5 5 5 5 , $ + , G ;.9.7.u.9.3.%.;.^ Y ,.",
"' ;.:.0.0. .M u > J 9.8.p.p.v 1 E 9.;.9.&.;.^ H y u G o.r.p.%.T Q 5.p.p.! f 7 Y Q E E E E ! Z > T | | W W W W W W G u X   ; u 7 u x b b 7 7 2 $ > m E p.9.r.7.7.9.3.R T ;.",
";.;.9.;.%.%.A u 4 J d.p.p.E k 1 Y ! ! %.r.9.7.0.:.Z r z Y ! ;.W Y 5.p.p.5.b 5 E r.9.3.9.a.9.D > Y o.W W W W W W 9.9.J ; . b %.Y ! x.g.x.! 5.;.N ; 6 H g.8.p.9.r.,.,.R Y w.",
";.9.p.9.p.l.9.b 2 J a.9.! K b 4 Z ^ ;.;.7.a.0.0.7.! k 2 k b F Z D %.;.o.! Z 2 G a.a.7.r.9.9.A > V  .! I W W | #.9.7.9.y . b ! ! p.r.8.a.g.p.g.p.J ; k ! b.g.9.p.8./ Y ! 5.",
"9.7.9.p.a.9.%.Z 4 J p.9.%.! F 7 b &.3.7.r.7.7.9.3.! ! A 5 2 6 7 k b b c k 6 ; 6 b Z A D H H u 1 Y 9.! |  .#.#.#.3.0.#.k X r W &.8.p.8.g.p.r.p.r.;.N 1 Z 0.c.x.l.5.R Y / w.",
"p.8.a.9.a.%.^ Z 1 A p.p.3.! F 6 u ;.7.9.7.p.r.7.;.%.;.;.! Y Z 6 o = * = - > O $ $ : > > : > $ y ! 9.o.3.#.#.#.#.9.9.9.x $ > J %.g.8.p.8.8.p.9.p.9.! x 2 v ! m.w.K Y ) 5.5.",
"8.r.8.p.r.E ! Z , Z a.p.8.;.I 6 u ;.3.9.7.0.0.0.9.;.3.;.7.a.c.! 4 o b D T J G Z V v x u u 5 : k ! 9.9.3.#.#.o.&.9.a.;.x % : K %.r.p.8.g.%.p.r.8.8./ ! b , f Z M H ! 8.8.p.",
"p.p.p.p.p.! ! Z , b 8.l.l.W b 5 5 ;.#.&.0.0.7.r.9.9.9.9.7.r.u.l.5 k ! ! Y Y ! ^ %.^ W ! ;.H ; k  .7.9.9.#.#.3.9.0.9.^ u # : H 9.g.p.p.g.' p.8.8.8.,.! ,.b - 4 i H 8.p.p.9.",
"r.p.8.r.! ! ! Z % 7 Z H m f 1 o ; ^ ! ;.9.9.a.7.:.p.0.p.0.p.a.! 1 b Q J Y W R ! ! %.! R o.Y > f %.9.0.9.3.9.7.0.0.a.! l # % Z %.;.;.%.8.! I T Q R Q / y.U 4 @ i H 8.r.p.p.",
"p.8.a.9.! ! E G : ; 2 > 1 7 x g ; R ! ! ^ ;.9.9.%.9.0.p.r.p.0.0.u k E Y W ! ! ! ! ! %.%.o.Q > 7 ^ a.0.7.9.a.9.a.a.0.%.v % o 4 y k x v Z x 1 5 7 k b x x k 2 + , b ! p.8.8.",
"9.r.9.! ! ! E I < 3 H J Y ;.g.%.3 W ! ! ! ! ! ! ! ! %.7.:.a.9.a.N 4 J Y Q %.%.;.#.0.0.9.0.;.5 u %.a.7.9.p.7.r.9.7.9.%.V > 4 4 7 5 5 6 1 4 f f 2 0 w r s 3 3 % + y H 3.8.p.",
"9.%.! ! ! ! ^ Y 3 N ;.;.3.8.;.! 7 ;.W E ! ! ! ! ! E %.9.a.p.a.p.N 4 H ! ! 9.9.9.9.0.0.0.0.;.u > H a.j.a.9.7.7.a.a.9.9.A > u G o.;.;.3.Z ! 8.5.Y s q U 5./ / L i $ k E h.g.",
"! %.! W W E o.F > Z r.;.p.g.8.T 5 ^ p.%.! W W T ! R ! %.9.9.9.9.F > N ! %.9.9.p.0.p.0.0.;.! k * v #.x.j.a.a.o.9.0.0.9.! u u 9.B.M.g.p.! ! ! 8.l.b r ! ! / ! ,.Y 2 ; Z T Y ",
"n m m x v x v u o 6 N A G J Z d o 2 f g f k A J G ^ ! ! %.9.9.T b > J p.8.p.9.r.:.r.w.;.;.;.D o 4 Z G I I Z b F W &.c.0.u 4 9.N.x.p.8. .E ! ! %.l y E ! / 6.,.f.D $ , y t ",
"w 2 , 3 r 5 6 2 , u 5 $ + $ = = > u l k k > > : ; m P J D m u 6 ; $ T b.:.9.9.r.9.r.:.:.^ ^ Y > o > > 4 1 - 1 4 6 v Y E 7 - o.M.t.,.) ! E / / R 6 x ! ! f.5.>.u.' y 8 9 a ",
"x ^ ;.;.p.p.9.9.E ' ;.6 ; x N G J U L H I D D x * . ; 6 u u x m y = m 0.r.&.{ 9.:.:.} } ^ ^ %.7 . > u c v b b v 7 1 1 j 7 = Y b.5.) ! R ! 5.,.Y 6 x ) ) u.5./ ,.' Z x d a ",
"x n.n.a.p.8.9.3.! ! ;.y s L L Y P Y R Y Y W Y Y g * J R ! ! ^ 0.W 1 5 V T ^ ^ r.:.:.{ ^ ^ ^ T u o c  .7.7.#.| | Q H 5 = ; X Z x.,./ R R ) ,.) b 1 N / ,.,./ ) / ! ^ l.L q ",
", J l.%.%.9.;.;.! ! ^ y A E T T E Q ! ^ ! ! E Q N 1 E  .! %.9.0.8.x > k M ^ ^ ^ } :.:.^ T T Y m ; V b.7.#. .| | Q R U Z 2 X x g.,.~ R ! ,.) Z f 1 B ' %.[ ,./ / ) 9.8.r.H ",
"y 3 Z ! 8.3.%.! ! ! ! y J E T E E ^ ~ ! ^ ^ ! R y k ! %.%.%.9.0.8.Z > y k J r.;.{ ' ^ ~ ~ T R J > x l.#.3.3.3.3.%.%.8.9.D ; k 9.) ! R / ,.P L x 4 x u.,./ / / / ) 8.3.8.l.",
"T 5 : x ! %.! %.;.^ ' y B T E E E E E ~ ! E J y @ l %.%.%.%.0.p.u.H @ = > y A P T ~ P P ! ~ ~ H > x j.3.3.| | 3.3.9.p.g.R 3 y ;./ ! ! [ ,.^ ) L 6 f ) ,./ / ) ! ) 3.8.u.9.",
";.Y y $ 2 v ! g.%.%.a.n y J T ~ E T E E P A 6 ; , e b Y ! W %.8.9.J = r u r ; 2 3 > 2 > y B B y * u 9.o.3.3.o.3.3.p.p.g.a.f 5 E / / ) ,./ T ^ R 2 g 5./ / / ! / ) %.8.p.! ",
"^ %.H x > < ;.n.%.! 8.m ; J ^ ~ ^ ~ E ~ n > > m J m r 1 4 y Y 8.r.Y ; > J ~ J m l n n u > ; ; # X 5 R ! #.3.3.3.3.9.8.8.a.Z , A / / / [ ) ) E ^ f g u./ / / ! ) / ! ' 8.! ",
"! ! Q ! Z > k U V Z G c o u Z A A A D x = 4 N E ;.9.! H G u 1 m W A > * T ^ ^ ~ ~ ~ ~ P B J p P u > ! ! ..o.3.3.5.5.p.9.p.Y ; v Y / 5.) ' u.,.' s i L ^ / ! ! ! / / ,.) ! ",
"! Y Y Y Y k $ ; ; 2 1 ; o u m b x x , o y S R ~ ;.9.9.r.l.;.c = = = . ; P E E ~ ~ ~ c.( c.c.P c.G > G | Q o.3.p.8.5.8.p.7.! 6 u L / / ! ) w.v.) i 3 K ! R / R / / +./ ! ! ",
"W Y Y Y G Z > f Y W F Z > x ! T / E ; 6 L E E E ' ;.8.p.9.9.Y Z k 1 o 4 T ~ ~ ~ ~ ( ( ( c.P ( P A ; b R Q Q  .o.3.3.;.8.9.%.y u L / / / >.f.,.K i % K ^ / / / / 5.,.! ! / ",
"f k N Z v c 1 k a.o.! ! x 5 ~ T ' k ; D L T E ! { 9.9.p.9.^ R ! ;.Z = 4 J ~ ~ ~ ( ( c.( P c.( c.m O k Z I Y Y Y Y R W E ! A 3 e b A n x x x f 6 < # i K / +./ R Y K D Z x ",
"4 4 4 4 4 1 o 5 W  .o.%.A : R c.K O x L K P R ~ ' 9.w.9.;.! R J T ! > x P ^ ~ ( ( ( ( ( ( ( ( ' m X o > 5 u 7 6 5 5 5 6 6 ; % % & , , 1 1 , , $ & 8 & 2 i k f 2 1 - 1 1 1 ",
"! J J Q Q I 1 ; I Q  .p.A o z D 2 , K K K R R ^ 9.;.r.;.;.^ ! T J ! 2 D ^ ~ ( ( ( ( ( ( } } } w.A X 2 x k f u f 7 u u 6 > @ > u g m C S S K K B b i i 2 $ @ ; 4 7 v H Q +.",
"p.9.;.p.7.p.v = c F V G f X o ; @ i E D K L T ! ! ;.;.' ;.;.! R T T 2 D { :.{ ( ( ( } } } :.;.^ b ; u E 9.0.9.7.R o.r.Y u ; x Y K K K L L K K L K K R R b , b ! Q U ! 8.t.",
"8.8.p.8.3.#.Z o = = > 2 ; 2 5 r % 3 R K K K T ! ' ' ' ;.;.;.^ E T J > m :.:.:.} } } } } } ;.&.E V > 5 H ;.9.7.g.p.3.9.;.f 2 D T K K P R P L K K K R P R Y 6 H Q Q Q 5.s.5."
};
